<mxfile host="app.diagrams.net" modified="2022-03-22T13:57:15.357Z" agent="5.0 (X11)" etag="yJzyh5jkKTpM-fU8z_Wc" version="15.8.3" type="github">
  <diagram name="Page-1" id="e7e014a7-5840-1c2e-5031-d8a46d1fe8dd">
    <mxGraphModel dx="1718" dy="959" grid="1" gridSize="10" guides="1" tooltips="1" connect="1" arrows="1" fold="1" page="1" pageScale="1" pageWidth="1169" pageHeight="826" background="none" math="0" shadow="0">
      <root>
        <mxCell id="0" />
        <mxCell id="1" parent="0" />
        <mxCell id="2" value="Jobiqo (export)" style="swimlane;whiteSpace=wrap" parent="1" vertex="1">
          <mxGeometry x="30" y="30" width="220" height="383" as="geometry" />
        </mxCell>
        <mxCell id="5" value="" style="ellipse;shape=startState;fillColor=#000000;strokeColor=#ff0000;" parent="2" vertex="1">
          <mxGeometry x="100" y="40" width="30" height="30" as="geometry" />
        </mxCell>
        <mxCell id="6" value="" style="edgeStyle=elbowEdgeStyle;elbow=horizontal;verticalAlign=bottom;endArrow=open;endSize=8;strokeColor=#FF0000;endFill=1;rounded=0" parent="2" source="5" target="7" edge="1">
          <mxGeometry x="100" y="40" as="geometry">
            <mxPoint x="115" y="110" as="targetPoint" />
          </mxGeometry>
        </mxCell>
        <mxCell id="7" value="TTR job export&#xa;from solr" style="" parent="2" vertex="1">
          <mxGeometry x="60" y="100" width="110" height="50" as="geometry" />
        </mxCell>
        <mxCell id="8" value="Upload FTP" style="" parent="2" vertex="1">
          <mxGeometry x="60" y="220" width="110" height="50" as="geometry" />
        </mxCell>
        <mxCell id="9" value="" style="endArrow=open;strokeColor=#FF0000;endFill=1;rounded=0" parent="2" source="7" target="8" edge="1">
          <mxGeometry relative="1" as="geometry" />
        </mxCell>
        <mxCell id="10" value="FTP or direct &#xa;access to jobs &#xa;in XML" style="" parent="2" vertex="1">
          <mxGeometry x="60" y="325" width="110" height="50" as="geometry" />
        </mxCell>
        <mxCell id="11" value="" style="endArrow=open;strokeColor=#FF0000;endFill=1;rounded=0" parent="2" source="8" target="10" edge="1">
          <mxGeometry relative="1" as="geometry" />
        </mxCell>
        <mxCell id="3" value="Pandologic (internal system??)" style="swimlane;whiteSpace=wrap" parent="1" vertex="1">
          <mxGeometry x="380" y="50" width="280" height="350" as="geometry" />
        </mxCell>
        <mxCell id="13" value="" style="ellipse;shape=startState;fillColor=#000000;strokeColor=#ff0000;" parent="3" vertex="1">
          <mxGeometry x="80" y="30" width="30" height="30" as="geometry" />
        </mxCell>
        <mxCell id="14" value="" style="edgeStyle=elbowEdgeStyle;elbow=horizontal;verticalAlign=bottom;endArrow=open;endSize=8;strokeColor=#FF0000;endFill=1;rounded=0" parent="3" source="13" target="15" edge="1">
          <mxGeometry x="40" y="20" as="geometry">
            <mxPoint x="55" y="90" as="targetPoint" />
          </mxGeometry>
        </mxCell>
        <mxCell id="15" value="Consume TTR jobs&#xa; from XML&#xa;" style="" parent="3" vertex="1">
          <mxGeometry x="40" y="90" width="110" height="50" as="geometry" />
        </mxCell>
        <mxCell id="16" value="Send X jobs &#xa;to vendor site" style="" parent="3" vertex="1">
          <mxGeometry x="40" y="190" width="110" height="50" as="geometry" />
        </mxCell>
        <mxCell id="17" value="" style="endArrow=open;strokeColor=#FF0000;endFill=1;rounded=0" parent="3" source="15" target="16" edge="1">
          <mxGeometry relative="1" as="geometry" />
        </mxCell>
        <mxCell id="ttU9FZBGVBVysi99e_SV-63" value="Pandologic passthrough (&lt;font color=&quot;#FF3333&quot;&gt;&lt;b&gt;view the application form?&lt;/b&gt;&lt;/font&gt;)" style="whiteSpace=wrap;html=1;labelBackgroundColor=default;strokeWidth=1;fillColor=default;" vertex="1" parent="3">
          <mxGeometry x="50" y="270" width="120" height="60" as="geometry" />
        </mxCell>
        <mxCell id="ttU9FZBGVBVysi99e_SV-43" style="edgeStyle=orthogonalEdgeStyle;rounded=0;orthogonalLoop=1;jettySize=auto;html=1;entryX=0;entryY=0.5;entryDx=0;entryDy=0;fontColor=#FF3333;fillColor=#fa6800;strokeColor=#FF0000;" edge="1" parent="1" source="10" target="15">
          <mxGeometry relative="1" as="geometry" />
        </mxCell>
        <mxCell id="ttU9FZBGVBVysi99e_SV-44" value="Vendor site" style="swimlane;whiteSpace=wrap" vertex="1" parent="1">
          <mxGeometry x="690" y="60" width="280" height="320" as="geometry" />
        </mxCell>
        <mxCell id="ttU9FZBGVBVysi99e_SV-45" value="" style="ellipse;shape=startState;fillColor=#000000;strokeColor=#ff0000;" vertex="1" parent="ttU9FZBGVBVysi99e_SV-44">
          <mxGeometry x="100" y="40" width="30" height="30" as="geometry" />
        </mxCell>
        <mxCell id="ttU9FZBGVBVysi99e_SV-46" value="" style="edgeStyle=elbowEdgeStyle;elbow=horizontal;verticalAlign=bottom;endArrow=open;endSize=8;strokeColor=#FF0000;endFill=1;rounded=0" edge="1" parent="ttU9FZBGVBVysi99e_SV-44" source="ttU9FZBGVBVysi99e_SV-45" target="ttU9FZBGVBVysi99e_SV-47">
          <mxGeometry x="100" y="40" as="geometry">
            <mxPoint x="115" y="110" as="targetPoint" />
          </mxGeometry>
        </mxCell>
        <mxCell id="ttU9FZBGVBVysi99e_SV-47" value="Consume jobs&#xa;from Pandologic&#xa;" style="" vertex="1" parent="ttU9FZBGVBVysi99e_SV-44">
          <mxGeometry x="60" y="110" width="110" height="50" as="geometry" />
        </mxCell>
        <mxCell id="ttU9FZBGVBVysi99e_SV-48" value="Display job landing&#xa;page on vendor&#xa;landing page&#xa;" style="" vertex="1" parent="ttU9FZBGVBVysi99e_SV-44">
          <mxGeometry x="60" y="210" width="110" height="60" as="geometry" />
        </mxCell>
        <mxCell id="ttU9FZBGVBVysi99e_SV-49" value="" style="endArrow=open;strokeColor=#FF0000;endFill=1;rounded=0" edge="1" parent="ttU9FZBGVBVysi99e_SV-44" source="ttU9FZBGVBVysi99e_SV-47" target="ttU9FZBGVBVysi99e_SV-48">
          <mxGeometry relative="1" as="geometry" />
        </mxCell>
        <mxCell id="19" value="" style="endArrow=open;strokeColor=#FF0000;endFill=1;rounded=0" parent="1" source="16" target="ttU9FZBGVBVysi99e_SV-47" edge="1">
          <mxGeometry relative="1" as="geometry">
            <mxPoint x="425" y="395" as="targetPoint" />
            <Array as="points">
              <mxPoint x="600" y="265" />
              <mxPoint x="600" y="195" />
            </Array>
          </mxGeometry>
        </mxCell>
        <mxCell id="ttU9FZBGVBVysi99e_SV-54" value="" style="edgeStyle=orthogonalEdgeStyle;rounded=0;orthogonalLoop=1;jettySize=auto;html=1;strokeColor=#FF0000;" edge="1" parent="1" source="ttU9FZBGVBVysi99e_SV-52" target="ttU9FZBGVBVysi99e_SV-53">
          <mxGeometry relative="1" as="geometry" />
        </mxCell>
        <mxCell id="ttU9FZBGVBVysi99e_SV-61" style="edgeStyle=orthogonalEdgeStyle;rounded=0;orthogonalLoop=1;jettySize=auto;html=1;entryX=1;entryY=0.5;entryDx=0;entryDy=0;strokeColor=#FF0000;" edge="1" parent="1" source="ttU9FZBGVBVysi99e_SV-52" target="ttU9FZBGVBVysi99e_SV-48">
          <mxGeometry relative="1" as="geometry">
            <Array as="points">
              <mxPoint x="925" y="300" />
            </Array>
          </mxGeometry>
        </mxCell>
        <mxCell id="ttU9FZBGVBVysi99e_SV-62" value="View landing page" style="edgeLabel;html=1;align=center;verticalAlign=middle;resizable=0;points=[];" vertex="1" connectable="0" parent="ttU9FZBGVBVysi99e_SV-61">
          <mxGeometry x="-0.4411" y="2" relative="1" as="geometry">
            <mxPoint x="2" y="32" as="offset" />
          </mxGeometry>
        </mxCell>
        <mxCell id="ttU9FZBGVBVysi99e_SV-52" value="Applicant" style="shape=umlActor;verticalLabelPosition=bottom;verticalAlign=top;html=1;outlineConnect=0;fillColor=default;strokeWidth=1;labelBackgroundColor=default;" vertex="1" parent="1">
          <mxGeometry x="910" y="490" width="30" height="60" as="geometry" />
        </mxCell>
        <mxCell id="ttU9FZBGVBVysi99e_SV-64" style="edgeStyle=orthogonalEdgeStyle;rounded=0;orthogonalLoop=1;jettySize=auto;html=1;entryX=1;entryY=0.5;entryDx=0;entryDy=0;fontColor=#FF3333;" edge="1" parent="1" source="ttU9FZBGVBVysi99e_SV-53" target="ttU9FZBGVBVysi99e_SV-63">
          <mxGeometry relative="1" as="geometry" />
        </mxCell>
        <mxCell id="ttU9FZBGVBVysi99e_SV-65" value="Redirected to&lt;br&gt;form?" style="edgeLabel;html=1;align=center;verticalAlign=middle;resizable=0;points=[];fontColor=#FF3333;" vertex="1" connectable="0" parent="ttU9FZBGVBVysi99e_SV-64">
          <mxGeometry x="-0.4994" y="4" relative="1" as="geometry">
            <mxPoint x="9" y="-4" as="offset" />
          </mxGeometry>
        </mxCell>
        <mxCell id="ttU9FZBGVBVysi99e_SV-53" value="Click on the job on vendor landing page" style="whiteSpace=wrap;html=1;verticalAlign=top;" vertex="1" parent="1">
          <mxGeometry x="700" y="450" width="120" height="50" as="geometry" />
        </mxCell>
        <mxCell id="ttU9FZBGVBVysi99e_SV-55" value="Jobiqo site (thank you page)" style="swimlane;whiteSpace=wrap" vertex="1" parent="1">
          <mxGeometry x="350" y="520" width="280" height="316" as="geometry" />
        </mxCell>
        <mxCell id="ttU9FZBGVBVysi99e_SV-56" value="" style="ellipse;shape=startState;fillColor=#000000;strokeColor=#ff0000;" vertex="1" parent="ttU9FZBGVBVysi99e_SV-55">
          <mxGeometry x="125" y="40" width="30" height="30" as="geometry" />
        </mxCell>
        <mxCell id="ttU9FZBGVBVysi99e_SV-57" value="" style="edgeStyle=elbowEdgeStyle;elbow=horizontal;verticalAlign=bottom;endArrow=open;endSize=8;strokeColor=#FF0000;endFill=1;rounded=0" edge="1" parent="ttU9FZBGVBVysi99e_SV-55" source="ttU9FZBGVBVysi99e_SV-56">
          <mxGeometry x="100" y="40" as="geometry">
            <mxPoint x="140.33333333333348" y="110" as="targetPoint" />
          </mxGeometry>
        </mxCell>
        <mxCell id="ttU9FZBGVBVysi99e_SV-59" value="Display job landing&#xa;page on vendor&#xa;landing page&#xa;" style="" vertex="1" parent="ttU9FZBGVBVysi99e_SV-55">
          <mxGeometry x="85" y="110" width="110" height="60" as="geometry" />
        </mxCell>
        <mxCell id="ttU9FZBGVBVysi99e_SV-60" value="" style="endArrow=open;strokeColor=#FF0000;endFill=1;rounded=0" edge="1" parent="ttU9FZBGVBVysi99e_SV-55" target="ttU9FZBGVBVysi99e_SV-59">
          <mxGeometry relative="1" as="geometry">
            <mxPoint x="140" y="170" as="sourcePoint" />
          </mxGeometry>
        </mxCell>
        <mxCell id="ttU9FZBGVBVysi99e_SV-66" style="edgeStyle=orthogonalEdgeStyle;rounded=0;orthogonalLoop=1;jettySize=auto;html=1;fontColor=#FF3333;strokeColor=#FF0000;" edge="1" parent="1" source="ttU9FZBGVBVysi99e_SV-63" target="ttU9FZBGVBVysi99e_SV-55">
          <mxGeometry relative="1" as="geometry" />
        </mxCell>
        <mxCell id="ttU9FZBGVBVysi99e_SV-67" value="Redirect to the thank you page&lt;br&gt;with parameters/URL?" style="edgeLabel;html=1;align=center;verticalAlign=middle;resizable=0;points=[];fontColor=#FF3333;" vertex="1" connectable="0" parent="ttU9FZBGVBVysi99e_SV-66">
          <mxGeometry x="0.1949" y="-2" relative="1" as="geometry">
            <mxPoint x="1" as="offset" />
          </mxGeometry>
        </mxCell>
        <mxCell id="ttU9FZBGVBVysi99e_SV-73" style="edgeStyle=orthogonalEdgeStyle;rounded=0;orthogonalLoop=1;jettySize=auto;html=1;fontSize=10;fontColor=#FF3333;strokeColor=#FF0000;" edge="1" parent="1" source="ttU9FZBGVBVysi99e_SV-69" target="ttU9FZBGVBVysi99e_SV-72">
          <mxGeometry relative="1" as="geometry" />
        </mxCell>
        <mxCell id="ttU9FZBGVBVysi99e_SV-69" value="Start the tracking&#xa;with CURL" style="" vertex="1" parent="1">
          <mxGeometry x="435" y="770" width="110" height="60" as="geometry" />
        </mxCell>
        <mxCell id="ttU9FZBGVBVysi99e_SV-70" value="" style="edgeStyle=orthogonalEdgeStyle;rounded=0;orthogonalLoop=1;jettySize=auto;html=1;fontSize=5;fontColor=#FF3333;strokeColor=#FF0000;" edge="1" parent="1" source="ttU9FZBGVBVysi99e_SV-59" target="ttU9FZBGVBVysi99e_SV-69">
          <mxGeometry relative="1" as="geometry" />
        </mxCell>
        <mxCell id="ttU9FZBGVBVysi99e_SV-71" value="&lt;h1&gt;Heading&lt;/h1&gt;&lt;p&gt;Lorem ipsum dolor sit amet, consectetur adipisicing elit, sed do eiusmod tempor incididunt ut labore et dolore magna aliqua.&lt;/p&gt;" style="text;html=1;strokeColor=none;fillColor=none;spacing=5;spacingTop=-20;whiteSpace=wrap;overflow=hidden;rounded=0;labelBackgroundColor=default;fontSize=5;fontColor=#FF3333;" vertex="1" parent="1">
          <mxGeometry x="520" y="370" width="190" height="120" as="geometry" />
        </mxCell>
        <mxCell id="ttU9FZBGVBVysi99e_SV-72" value="&lt;h1 style=&quot;font-size: 10px;&quot;&gt;CURL&lt;/h1&gt;&lt;p style=&quot;font-size: 10px;&quot;&gt;curl -d &quot;piq_event=EndApply&amp;amp;etd=a1b2c3&quot; -X GET http://tracking.pandoiq.com/17582/etrack&lt;br style=&quot;font-size: 10px;&quot;&gt;&lt;br style=&quot;font-size: 10px;&quot;&gt;&lt;/p&gt;" style="text;html=1;strokeColor=none;fillColor=none;spacing=5;spacingTop=-20;whiteSpace=wrap;overflow=hidden;rounded=0;labelBackgroundColor=default;fontSize=10;fontColor=#FF3333;" vertex="1" parent="1">
          <mxGeometry x="650" y="750" width="440" height="120" as="geometry" />
        </mxCell>
      </root>
    </mxGraphModel>
  </diagram>
</mxfile>
